<svg width="152" height="34" viewBox="0 0 152 34" fill="none" xmlns="http://www.w3.org/2000/svg">
<g clip-path="url(#clip0_139_368)">
<path d="M0 27.472C0 31.881 6.18 33.024 13.5 33.024C20.781 33.024 27 31.921 27 27.511C27 23.101 20.821 21.959 13.5 21.959C6.219 21.959 0 23.062 0 27.472Z" fill="#435EBE"/>
<path d="M13.5 17.6C18.3601 17.6 22.2999 13.6601 22.2999 8.8C22.2999 3.93989 18.3601 0 13.5 0C8.63985 0 4.69995 3.93989 4.69995 8.8C4.69995 13.6601 8.63985 17.6 13.5 17.6Z" fill="#41BBDD"/>
<path d="M58.84 23.76C58.84 25.0133 58.5467 26.0933 57.96 27C57.4 27.88 56.4667 28.6933 55.16 29.44C54.28 29.9733 53.2533 30.3733 52.08 30.64C50.9067 30.9067 49.72 31.04 48.52 31.04C47.2933 31.04 45.7733 30.64 43.96 29.84C42.6533 29.2 41.6133 28.44 40.84 27.56C40.0933 26.68 39.72 25.72 39.72 24.68C39.72 23.96 39.88 23.44 40.2 23.12C40.52 22.7733 41.04 22.6 41.76 22.6C42.1333 22.6 42.52 22.76 42.92 23.08C43.32 23.3733 43.56 23.6667 43.64 23.96C44.0133 25.0533 44.6667 25.8933 45.6 26.48C46.5333 27.04 47.6933 27.32 49.08 27.32C50.68 27.32 52.0133 27.0267 53.08 26.44C54.1733 25.8533 54.72 25.0667 54.72 24.08C54.72 23.12 54.1333 22.2667 52.96 21.52C51.7867 20.7733 50.5867 20.2533 49.36 19.96C47.6 19.48 46.04 18.9067 44.68 18.24C43.2667 17.5467 42.2133 16.6933 41.52 15.68C40.8267 14.6667 40.48 13.6 40.48 12.48C40.48 11.44 40.84 10.3867 41.56 9.32C42.28 8.22667 43.1333 7.44 44.12 6.96C44.6533 6.69333 45.56 6.41333 46.84 6.12C48.1467 5.8 49.0933 5.64 49.68 5.64C50.4533 5.64 51.3067 5.73333 52.24 5.92C53.1733 6.10667 53.9333 6.37333 54.52 6.72C55.6933 7.38667 56.56 7.98667 57.12 8.52C57.68 9.05333 57.96 9.72 57.96 10.52C57.96 11 57.7733 11.4267 57.4 11.8C57.0533 12.1733 56.44 12.36 55.56 12.36C55.3467 12.36 55.1333 12.2667 54.92 12.08C54.7067 11.8933 54.44 11.6133 54.12 11.24C53.6933 10.68 53.28 10.3067 52.88 10.12C52.48 9.98667 51.8933 9.84 51.12 9.68C50.3733 9.52 49.7067 9.44 49.12 9.44C48.48 9.44 47.8133 9.57333 47.12 9.84C46.4267 10.1067 45.84 10.4933 45.36 11C44.9067 11.48 44.68 12.04 44.68 12.68C44.68 13.2133 44.92 13.68 45.4 14.08C45.9067 14.4533 46.5067 14.76 47.2 15C48 15.32 48.8667 15.6 49.8 15.84C51.0267 16.2133 52.0267 16.56 52.8 16.88C53.6 17.1733 54.3733 17.5467 55.12 18C56.4267 18.7733 57.3733 19.5733 57.96 20.4C58.5467 21.2 58.84 22.32 58.84 23.76ZM64.6209 5.32C65.5543 5.4 66.3676 5.65333 67.0609 6.08C67.7543 6.48 68.1009 7.09333 68.1009 7.92C68.1009 8.53333 67.8076 9.02667 67.2209 9.4C66.6609 9.74667 65.9809 9.92 65.1809 9.92C64.4076 9.92 63.8743 9.72 63.5809 9.32C63.2876 8.92 63.1409 8.50667 63.1409 8.08C63.1409 7.28 63.2209 6.61333 63.3809 6.08C63.5676 5.54667 63.9809 5.29333 64.6209 5.32ZM67.8209 23.04V24.2C67.8209 25.24 67.8476 26.2267 67.9009 27.16C67.9809 28.0667 68.0743 28.9867 68.1809 29.92C68.1543 30.1867 67.9543 30.4667 67.5809 30.76C67.2076 31.0267 66.8743 31.16 66.5809 31.16C66.0743 31.16 65.5543 31.0667 65.0209 30.88C64.5143 30.6667 64.2076 30.4133 64.1009 30.12C63.9409 29.2667 63.8609 28.5067 63.8609 27.84C63.8609 25.6533 63.7943 23.2 63.6609 20.48C63.5543 18.08 63.5009 16.4 63.5009 15.44C63.5009 14.96 63.7409 14.5467 64.2209 14.2C64.7009 13.8533 65.2076 13.68 65.7409 13.68C66.5143 13.68 67.0476 13.8533 67.3409 14.2C67.6609 14.5467 67.8209 15.0933 67.8209 15.84V23.04ZM78.7353 29.4C78.7353 29.8533 78.562 30.2533 78.2153 30.6C77.8686 30.9467 77.442 31.12 76.9353 31.12C76.1353 31.12 75.5486 30.9733 75.1753 30.68C74.802 30.36 74.6153 29.7867 74.6153 28.96C74.6153 27.9733 74.5886 26.68 74.5353 25.08C74.482 23.7467 74.4553 22.6267 74.4553 21.72C74.4553 21.2933 74.482 20.7333 74.5353 20.04C74.5886 19.4 74.6153 18.92 74.6153 18.6C74.5353 18.0933 74.3353 17.68 74.0153 17.36C73.6953 17.0133 73.282 16.84 72.7753 16.84C72.5353 16.84 72.3353 16.7333 72.1753 16.52C72.0153 16.28 71.9353 16.04 71.9353 15.8C71.9353 15.1867 72.1753 14.72 72.6553 14.4C73.162 14.08 73.762 13.92 74.4553 13.92C75.8953 13.92 76.8953 14.7733 77.4553 16.48C78.1486 15.68 78.9353 15.04 79.8153 14.56C80.722 14.0533 81.5886 13.8 82.4153 13.8C83.402 13.8 84.2953 14.0667 85.0953 14.6C85.922 15.1333 86.3353 15.8533 86.3353 16.76C86.3353 17.2667 86.1086 17.7867 85.6553 18.32C85.2286 18.8533 84.7886 19.12 84.3353 19.12C84.0953 19.12 83.882 19.0667 83.6953 18.96C83.5353 18.8267 83.3353 18.64 83.0953 18.4C82.8286 18.1333 82.602 17.9467 82.4153 17.84C82.2286 17.7067 82.0153 17.64 81.7753 17.64C81.3486 17.64 80.9486 17.7067 80.5753 17.84C80.202 17.9733 79.9486 18.1333 79.8153 18.32C79.3886 18.9867 79.0686 19.5867 78.8553 20.12C78.6686 20.6533 78.5753 21.2267 78.5753 21.84C78.5753 22.2933 78.562 22.6533 78.5353 22.92L78.4953 25.2C78.4953 25.5467 78.5086 25.9333 78.5353 26.36C78.562 26.7867 78.5886 27.1067 78.6153 27.32C78.6953 28.04 78.7353 28.7333 78.7353 29.4ZM103.914 31.16C103.007 31.16 102.314 31.0267 101.834 30.76C101.354 30.4667 100.834 29.9333 100.274 29.16C99.5804 29.7733 98.5404 30.2667 97.1537 30.64C95.7938 31.0133 94.6204 31.2 93.6338 31.2C92.0071 31.2 90.6871 30.76 89.6738 29.88C88.6871 28.9733 88.1938 27.6533 88.1938 25.92C88.1938 25.1733 88.3938 24.4933 88.7938 23.88C89.2204 23.24 89.7671 22.68 90.4338 22.2C91.1804 21.6933 92.0604 21.2933 93.0738 21C94.1138 20.7067 95.0604 20.56 95.9138 20.56C97.3538 20.56 98.6338 20.6933 99.7538 20.96V20.92C99.7538 19.48 99.3938 18.4933 98.6738 17.96C97.9804 17.4 96.8604 17.12 95.3138 17.12C94.3271 17.12 93.4738 17.56 92.7538 18.44C92.4871 18.7867 91.9271 18.96 91.0738 18.96C90.6471 18.96 90.3271 18.7867 90.1138 18.44C89.9271 18.0667 89.8338 17.6933 89.8338 17.32C89.8338 16.5467 90.1538 15.88 90.7938 15.32C91.4604 14.76 92.2604 14.3467 93.1938 14.08C94.1271 13.7867 94.9938 13.64 95.7938 13.64C96.5671 13.64 97.4871 13.8 98.5538 14.12C99.6204 14.44 100.487 14.8667 101.154 15.4C101.954 16.0933 102.567 16.9067 102.994 17.84C103.447 18.7467 103.674 19.7467 103.674 20.84C103.674 21.1867 103.647 21.7067 103.594 22.4C103.54 23.2 103.514 23.8533 103.514 24.36C103.514 24.6 103.487 24.9067 103.434 25.28C103.38 25.76 103.354 26.16 103.354 26.48C103.354 26.8267 103.46 27.16 103.674 27.48C103.887 27.8 104.18 28.0667 104.554 28.28C104.9 28.4667 105.127 28.6667 105.234 28.88C105.34 29.0933 105.394 29.3333 105.394 29.6C105.394 29.8667 105.22 30.2 104.874 30.6C104.554 30.9733 104.234 31.16 103.914 31.16ZM95.9138 23.52C94.8738 23.52 93.9538 23.72 93.1538 24.12C92.3538 24.52 91.9538 25.2267 91.9538 26.24C91.9538 26.7467 92.1271 27.1733 92.4737 27.52C92.8471 27.8667 93.2471 28.04 93.6738 28.04C94.8204 28.04 95.7804 27.92 96.5538 27.68C97.3271 27.44 98.2604 27 99.3538 26.36C99.4871 25.9333 99.5671 25.3333 99.5938 24.56C99.5938 24.2667 99.6071 24.04 99.6338 23.88C98.1938 23.64 96.9538 23.52 95.9138 23.52ZM126.881 21.48C127.041 20.8933 127.215 20.0933 127.401 19.08C127.668 17.88 127.881 16.9733 128.041 16.36C128.201 15.7467 128.415 15.2267 128.681 14.8C128.975 14.32 129.228 14 129.441 13.84C129.681 13.68 129.935 13.6 130.201 13.6C131.588 13.6 132.281 14.1333 132.281 15.2C132.281 15.7333 132.068 16.7333 131.641 18.2C130.228 22.4667 129.215 25.7733 128.601 28.12C128.335 29.1067 127.935 29.8667 127.401 30.4C126.868 30.9067 126.148 31.16 125.241 31.16C124.788 31.16 124.321 30.9467 123.841 30.52C123.388 30.0667 123.015 29.52 122.721 28.88L122.281 27.8C121.535 25.9067 120.975 24.4533 120.601 23.44C120.255 22.4 120.028 21.4667 119.921 20.64L119.561 21.92C118.921 24.2133 118.255 26.3467 117.561 28.32C117.215 29.3333 116.788 30.0667 116.281 30.52C115.775 30.9467 115.121 31.16 114.321 31.16C113.841 31.16 113.415 31.0533 113.041 30.84C112.695 30.6267 112.361 30.2667 112.041 29.76C111.615 29.0667 111.201 28.1333 110.801 26.96C110.428 25.7867 109.881 23.96 109.161 21.48C108.815 20.4133 108.495 19.2933 108.201 18.12C107.908 16.92 107.761 16.08 107.761 15.6C107.761 15.04 107.908 14.6 108.201 14.28C108.495 13.96 108.921 13.8 109.481 13.8C110.201 13.8 110.708 13.9467 111.001 14.24C111.295 14.5067 111.561 14.92 111.801 15.48C111.935 16.44 112.228 17.8 112.681 19.56L113.561 23.32C113.615 23.6133 113.775 24.2267 114.041 25.16L114.361 26.32C114.948 25.0667 115.441 23.8667 115.841 22.72C116.241 21.5733 116.681 20.16 117.161 18.48C117.188 18.3733 117.455 17.4533 117.961 15.72C118.308 15.16 118.615 14.7467 118.881 14.48C119.148 14.1867 119.415 14.04 119.681 14.04C120.215 14.04 120.668 14.2133 121.041 14.56C121.441 14.88 121.735 15.28 121.921 15.76C122.241 16.8 122.521 17.7467 122.761 18.6C122.868 18.9467 123.108 19.7867 123.481 21.12C123.881 22.4267 124.241 23.5333 124.561 24.44C124.881 25.3467 125.148 25.9867 125.361 26.36L126.881 21.48ZM153.788 29.08C153.788 29.6667 153.468 30.16 152.828 30.56C152.188 30.96 151.601 31.16 151.068 31.16C150.081 31.16 149.281 31.04 148.668 30.8C148.081 30.5333 147.521 30.0533 146.988 29.36C146.321 29.9733 145.388 30.44 144.188 30.76C142.988 31.0533 141.881 31.2 140.868 31.2C139.214 31.2 137.841 30.76 136.748 29.88C135.681 28.9733 135.148 27.6533 135.148 25.92C135.148 25.1733 135.374 24.4267 135.828 23.68C136.281 22.9067 136.841 22.2933 137.508 21.84C138.228 21.36 139.041 21.04 139.948 20.88C140.854 20.6933 141.908 20.6 143.108 20.6C143.668 20.6 144.334 20.7067 145.108 20.92C145.881 21.1333 146.494 21.36 146.948 21.6V20.96C146.948 19.52 146.588 18.5333 145.868 18C145.174 17.44 144.054 17.16 142.508 17.16C142.028 17.16 141.588 17.24 141.188 17.4C140.814 17.5333 140.374 17.7333 139.868 18C139.388 18.2667 138.934 18.4 138.508 18.4C138.134 18.4 137.774 18.2533 137.428 17.96C137.081 17.64 136.908 17.3067 136.908 16.96C136.908 15.84 137.601 15.0267 138.988 14.52C140.401 13.9867 141.841 13.72 143.308 13.72C144.054 13.72 144.908 13.88 145.868 14.2C146.828 14.4933 147.641 14.9067 148.308 15.44C149.108 16.1067 149.721 16.9067 150.148 17.84C150.601 18.7733 150.828 19.7867 150.828 20.88C150.828 21.2267 150.801 21.7467 150.748 22.44C150.694 23.1867 150.668 23.8267 150.668 24.36L150.628 25.44C150.574 26.0267 150.548 26.4933 150.548 26.84C150.548 27.16 150.654 27.44 150.868 27.68C151.108 27.8933 151.388 28 151.708 28L152.828 27.96C153.121 27.96 153.348 28.08 153.508 28.32C153.694 28.5333 153.788 28.7867 153.788 29.08ZM140.868 28.04C142.014 28.04 142.974 27.92 143.748 27.68C144.521 27.44 145.454 27 146.548 26.36C146.654 25.9067 146.721 25.3067 146.748 24.56C145.281 23.8667 144.068 23.52 143.108 23.52C142.201 23.52 141.468 23.56 140.908 23.64C140.348 23.6933 139.841 23.92 139.388 24.32C138.934 24.72 138.708 25.36 138.708 26.24C138.708 26.7467 138.948 27.1733 139.428 27.52C139.934 27.8667 140.414 28.04 140.868 28.04Z" fill="#435EBE"/>
</g>
<defs>
<clipPath id="clip0_139_368">
<rect width="152" height="34" fill="white"/>
</clipPath>
</defs>
</svg>
